<mxfile host="65bd71144e">
    <diagram id="Cz2mVuCLMiaqCe-P5Ldn" name="Page-1">
        <mxGraphModel dx="694" dy="552" grid="1" gridSize="10" guides="1" tooltips="1" connect="1" arrows="1" fold="1" page="1" pageScale="1" pageWidth="850" pageHeight="1100" math="0" shadow="0">
            <root>
                <mxCell id="0"/>
                <mxCell id="1" parent="0"/>
                <mxCell id="3" value="" style="rounded=1;whiteSpace=wrap;html=1;arcSize=6;" vertex="1" parent="1">
                    <mxGeometry x="140" y="40" width="490" height="350" as="geometry"/>
                </mxCell>
                <mxCell id="4" value="Variable Environment" style="rounded=1;whiteSpace=wrap;html=1;strokeColor=#36393d;fillColor=#cdeb8b;arcSize=6;" vertex="1" parent="1">
                    <mxGeometry x="155" y="110" width="212.14" height="110" as="geometry"/>
                </mxCell>
                <mxCell id="5" value="Scope Chain" style="rounded=1;whiteSpace=wrap;html=1;strokeColor=#36393d;fillColor=#ffcccc;arcSize=6;" vertex="1" parent="1">
                    <mxGeometry x="155" y="250" width="212.14" height="110" as="geometry"/>
                </mxCell>
                <mxCell id="6" value="Lexical Environment" style="rounded=1;whiteSpace=wrap;html=1;strokeColor=#36393d;fillColor=#cce5ff;arcSize=6;" vertex="1" parent="1">
                    <mxGeometry x="400" y="110" width="212.14" height="110" as="geometry"/>
                </mxCell>
                <mxCell id="7" value="this Binding" style="rounded=1;whiteSpace=wrap;html=1;strokeColor=#36393d;fillColor=#eeeeee;arcSize=6;" vertex="1" parent="1">
                    <mxGeometry x="400" y="250" width="212.14" height="110" as="geometry"/>
                </mxCell>
                <mxCell id="8" value="&lt;b&gt;&lt;font style=&quot;font-size: 16px;&quot;&gt;Execution Context&lt;/font&gt;&lt;/b&gt;" style="text;html=1;align=center;verticalAlign=middle;whiteSpace=wrap;rounded=0;" vertex="1" parent="1">
                    <mxGeometry x="292.5" y="60" width="185" height="30" as="geometry"/>
                </mxCell>
            </root>
        </mxGraphModel>
    </diagram>
</mxfile>